<svg xmlns="http://www.w3.org/2000/svg" viewBox="0 0 24 24" width="28" height="28" fill="#888">
  <path d="M19.14 12.94c.04-.3.06-.61.06-.94s-.02-.64-.06-.94l2.03-1.58a.5.5 0 0 0 .11-.63l-1.92-3.32a.5.5 0 0 0-.6-.22l-2.39.96a7.07 7.07 0 0 0-1.63-.94L14 2.5a.5.5 0 0 0-.5-.5h-3a.5.5 0 0 0-.5.5v2.29a7.07 7.07 0 0 0-1.63.94l-2.39-.96a.5.5 0 0 0-.6.22L3.46 8.31a.5.5 0 0 0 .11.63l2.03 1.58c-.04.3-.06.61-.06.94s.02.64.06.94l-2.03 1.58a.5.5 0 0 0-.11.63l1.92 3.32c.13.22.39.3.6.22l2.39-.96c.49.38 1.03.7 1.63.94V21.5a.5.5 0 0 0 .5.5h3a.5.5 0 0 0 .5-.5v-2.29c.6-.24 1.14-.56 1.63-.94l2.39.96a.5.5 0 0 0 .6-.22l1.92-3.32a.5.5 0 0 0-.11-.63l-2.03-1.58zM12 15.5A3.5 3.5 0 1 1 12 8a3.5 3.5 0 0 1 0 7.5z"/>
</svg>
